<svg width="24" height="24" viewBox="0 0 24 24" fill="none" xmlns="http://www.w3.org/2000/svg">
<circle cx="12" cy="12" r="11" stroke="#92D8BC" stroke-width="1.5"/>
<path d="M12.9121 12.2314C12.9121 12.6973 12.5176 13.0751 12.0303 13.0751C11.5434 13.0751 11.1485 12.6973 11.1485 12.2314V7.84367C11.1485 7.37779 11.5434 7 12.0303 7C12.5172 7 12.9121 7.37743 12.9121 7.84367V12.2314ZM18 12.2597C18 15.4249 15.3086 18 12 18C8.69141 18 6 15.4249 6 12.2597C6 10.7253 6.62466 9.28286 7.75947 8.19891C7.93163 8.03418 8.15695 7.95218 8.38263 7.95218C8.60832 7.95218 8.83438 8.03454 9.00655 8.19962C9.35088 8.52943 9.35051 9.06335 9.0058 9.3928C8.20523 10.1584 7.76396 11.1765 7.76396 12.2597C7.76396 14.4942 9.66415 16.3123 12 16.3123C14.3358 16.3123 16.236 14.4942 16.236 12.2597C16.236 11.1772 15.7959 10.1595 14.9957 9.39387C14.6514 9.06407 14.6517 8.53014 14.9961 8.20034C15.3408 7.87053 15.8988 7.87125 16.2435 8.2007C17.3761 9.28501 18 10.7267 18 12.2597Z" fill="#92D8BC"/>
</svg>
