<svg width="22" height="22" viewBox="0 0 22 22" fill="none" xmlns="http://www.w3.org/2000/svg">
    <g clip-path="url(#clip0)">
        <path d="M18.9206 10.12C19.4066 10.12 19.8006 9.726 19.8006 9.23999C19.8006 8.75397 19.4066 8.35999 18.9206 8.35999C18.4345 8.35999 18.0406 8.75397 18.0406 9.23999C18.0406 9.726 18.4345 10.12 18.9206 10.12Z" fill="#797A84"/>
        <path fill-rule="evenodd" clip-rule="evenodd" d="M3.95944 0H18.0394V6.6C18.0394 6.84301 17.8424 7.04 17.5994 7.04C17.3564 7.04 17.1594 6.84301 17.1594 6.6V0.88H4.83944V6.6C4.83944 6.84301 4.64245 7.04 4.39944 7.04C4.15644 7.04 3.95944 6.84301 3.95944 6.6V0Z" fill="#797A84"/>
        <path fill-rule="evenodd" clip-rule="evenodd" d="M3.95944 12.3201H18.0394V22.0001H3.95944V12.3201ZM4.83944 13.2001V21.1201H17.1594V13.2001H4.83944Z" fill="#797A84"/>
        <path fill-rule="evenodd" clip-rule="evenodd" d="M1.32 7.04003C1.07725 7.04003 0.88 7.23728 0.88 7.48003V16.72C0.88 16.9628 1.07725 17.16 1.32 17.16H4.4C4.64301 17.16 4.84 17.357 4.84 17.6C4.84 17.843 4.64301 18.04 4.4 18.04H1.32C0.591235 18.04 0 17.4488 0 16.72V7.48003C0 6.75127 0.591235 6.16003 1.32 6.16003H20.68C21.4088 6.16003 22 6.75127 22 7.48003V16.72C22 17.4488 21.4088 18.04 20.68 18.04H17.6C17.357 18.04 17.16 17.843 17.16 17.6C17.16 17.357 17.357 17.16 17.6 17.16H20.68C20.9228 17.16 21.12 16.9628 21.12 16.72V7.48003C21.12 7.23728 20.9228 7.04003 20.68 7.04003H1.32Z" fill="#797A84"/>
        <path fill-rule="evenodd" clip-rule="evenodd" d="M6.15976 15.4C6.15976 15.157 6.35675 14.96 6.59976 14.96H15.3998C15.6428 14.96 15.8398 15.157 15.8398 15.4C15.8398 15.643 15.6428 15.84 15.3998 15.84H6.59976C6.35675 15.84 6.15976 15.643 6.15976 15.4Z" fill="#797A84"/>
        <path fill-rule="evenodd" clip-rule="evenodd" d="M6.15976 17.1601C6.15976 16.9171 6.35675 16.7201 6.59976 16.7201H13.6398C13.8828 16.7201 14.0798 16.9171 14.0798 17.1601C14.0798 17.4031 13.8828 17.6001 13.6398 17.6001H6.59976C6.35675 17.6001 6.15976 17.4031 6.15976 17.1601Z" fill="#797A84"/>
        <path fill-rule="evenodd" clip-rule="evenodd" d="M6.15976 18.92C6.15976 18.677 6.35675 18.48 6.59976 18.48H15.3998C15.6428 18.48 15.8398 18.677 15.8398 18.92C15.8398 19.163 15.6428 19.36 15.3998 19.36H6.59976C6.35675 19.36 6.15976 19.163 6.15976 18.92Z" fill="#797A84"/>
    </g>
    <defs>
        <clipPath id="clip0">
            <rect width="22" height="22" fill="white"/>
        </clipPath>
    </defs>
</svg>
