<svg width="22" height="22" viewBox="0 0 22 22" fill="none" xmlns="http://www.w3.org/2000/svg">
    <path d="M5.34839 7.3099C5.58848 7.3099 5.82044 7.34625 6.03876 7.41368C6.86328 6.48969 7.77748 5.64916 8.76748 4.90284C8.72611 4.72804 8.70172 4.54678 8.70172 4.35906C8.70172 4.09985 8.74572 3.85091 8.82367 3.61776C7.71483 2.82195 6.50841 2.1543 5.22548 1.63803C4.02241 2.38147 2.97335 3.35066 2.13735 4.48652C2.75813 5.58555 3.49609 6.61069 4.33472 7.54353C4.64176 7.39527 4.98491 7.3099 5.34839 7.3099ZM3.00802 9.65C3.00802 9.32144 3.07665 9.00866 3.19885 8.72506C2.4475 7.90054 1.76741 7.01051 1.17126 6.06237C0.4235 7.54735 0 9.22364 0 10.9996C0 13.0566 0.565783 14.9804 1.54861 16.627C1.89965 14.6478 2.56587 12.778 3.48628 11.063C3.18713 10.6704 3.00802 10.1818 3.00802 9.65ZM11.0421 2.01848C11.6602 2.01848 12.2208 2.25976 12.639 2.65121C13.86 2.12585 15.146 1.72316 16.4837 1.46561C14.8689 0.535168 12.9975 0 10.9998 0C9.63815 0 8.33465 0.24941 7.13087 0.702079C8.08643 1.17364 8.99681 1.72459 9.85337 2.3456C10.202 2.139 10.6076 2.01848 11.0421 2.01848ZM14.542 13.0416C14.6876 12.7383 14.8945 12.4703 15.1501 12.257C14.4595 10.1309 13.365 8.18678 11.9556 6.51408C11.6751 6.63317 11.3663 6.69917 11.0421 6.69917C10.5344 6.69917 10.066 6.5356 9.68239 6.26108C8.8342 6.90577 8.04913 7.62866 7.33533 8.41754C7.5582 8.77551 7.689 9.19733 7.689 9.65C7.689 9.89463 7.65122 10.1299 7.58187 10.3514C9.63457 11.723 11.9969 12.6633 14.542 13.0416ZM17.5775 16.2007C17.6098 16.6438 17.6268 17.0909 17.6268 17.5419C17.6268 18.3361 17.5761 19.1183 17.4804 19.8866C19.3454 18.524 20.7661 16.5897 21.482 14.3405C20.6338 14.5457 19.7632 14.6923 18.875 14.7776C18.6663 15.418 18.1897 15.9362 17.5775 16.2007ZM13.9934 14.6145C11.2783 14.1647 8.76054 13.1288 6.56939 11.6443C6.2138 11.8624 5.79652 11.9908 5.34863 11.9908C5.18411 11.9908 5.02389 11.9734 4.8687 11.9411C3.81963 13.9299 3.14935 16.1481 2.95661 18.4999C4.004 19.6228 5.28191 20.5275 6.71741 21.1348C8.49941 18.394 10.9912 16.1268 13.9934 14.6145ZM18.3841 2.84706C16.6215 3.01708 14.9378 3.45946 13.3703 4.12448C13.3786 4.20171 13.3825 4.27967 13.3825 4.35882C13.3825 4.72827 13.2945 5.07644 13.1421 5.38731C14.708 7.22573 15.9244 9.36831 16.6923 11.7137C17.6438 11.7307 18.4575 12.3136 18.8074 13.1415C19.8662 13.0341 20.8974 12.8316 21.8907 12.5394C21.961 12.0363 22 11.5229 22 10.9996C22 7.76663 20.6049 4.85956 18.3841 2.84706ZM15.1709 15.8649C12.3683 17.1777 10.0251 19.1996 8.32796 21.6714C9.18333 21.885 10.0779 22 10.9998 22C12.6591 22 14.2314 21.6303 15.642 20.9725C15.8687 19.8636 15.9887 18.7168 15.9887 17.5419C15.9887 17.1175 15.9696 16.6973 15.9378 16.281C15.6552 16.1904 15.3959 16.0483 15.1709 15.8649Z" fill="#797A84"/>
</svg>
