<svg width="22" height="22" viewBox="0 0 22 22" fill="none" xmlns="http://www.w3.org/2000/svg">
    <path d="M11 22C17.0751 22 22 17.0751 22 11C22 4.92487 17.0751 0 11 0C4.92487 0 0 4.92487 0 11C0 17.0751 4.92487 22 11 22Z" fill="#92D8BC"/>
    <path d="M9.33281 16.7062L4.2625 11.6358C4.19375 11.5671 4.19375 11.464 4.2625 11.3952L5.72344 9.93428C5.79219 9.86553 5.89531 9.86553 5.96406 9.93428L9.45312 13.4233L16.0187 6.85771C16.0875 6.78896 16.1906 6.78896 16.2594 6.85771L17.7203 8.31865C17.7891 8.3874 17.7891 8.49053 17.7203 8.55928L9.57344 16.7062C9.50469 16.7749 9.40156 16.7749 9.33281 16.7062Z" fill="#333541"/>
</svg>
