<svg width="24" height="24" viewBox="0 0 24 24" fill="none" xmlns="http://www.w3.org/2000/svg">
    <path d="M23 11.9721V21.9824C23 22.5444 22.5311 23 21.9526 23H14.2214V17.8924C14.2214 17.6122 14.168 17.3425 14.0612 17.0935C13.9544 16.8237 13.7835 16.5747 13.5699 16.3672C13.1748 15.9729 12.6194 15.7343 12 15.7343C11.0602 15.7343 10.2592 16.2946 9.93884 17.0935C9.83204 17.3425 9.77864 17.6122 9.77864 17.8924V23H2.0474C1.46894 23 1 22.5444 1 21.9824V11.9721C1 11.5195 1.18505 11.0855 1.51444 10.7655L11.2594 1.29804C11.6684 0.900652 12.3316 0.900652 12.7406 1.29804L22.4856 10.7655C22.815 11.0855 23 11.5195 23 11.9721Z" stroke="#797A84" stroke-miterlimit="10" stroke-linecap="round" stroke-linejoin="round"/>
</svg>
