<svg width="20" height="22" viewBox="0 0 20 22" fill="none" xmlns="http://www.w3.org/2000/svg">
    <path d="M0 14.2083V22H15.1715L16.255 21.2272C18.635 19.5305 20 16.9721 20 14.2083V13.9109L15.5795 12.1092C14.7845 10.1727 12.965 8.78075 10.8045 8.37513C12.1285 7.54967 13 6.15817 13 4.58333C13 2.05608 10.757 0 8 0C5.243 0 3 2.05608 3 4.58333C3 6.15588 3.8695 7.546 5.19 8.37146C2.232 8.92879 0 11.3341 0 14.2083ZM18.994 14.504C18.9005 16.869 17.6905 19.0428 15.6405 20.5045L15 20.961L14.3595 20.504C12.3095 19.0428 11.099 16.8685 11.006 14.5035L15.001 12.8764L18.994 14.504ZM4 4.58333C4 2.56163 5.7945 0.916667 8 0.916667C10.2055 0.916667 12 2.56163 12 4.58333C12 6.60504 10.2055 8.25 8 8.25C5.7945 8.25 4 6.60504 4 4.58333ZM6.5 9.16667H9.5C11.656 9.16667 13.5865 10.3203 14.4805 12.0849L10 13.9109V14.2083C10 16.8965 11.2945 19.3875 13.5545 21.0833H1V14.2083C1 11.4285 3.4675 9.16667 6.5 9.16667Z" fill="#797A84"/>
    <path d="M15.501 14.6665H14.501V16.0415H13.001V16.9582H14.501V18.3332H15.501V16.9582H17.001V16.0415H15.501V14.6665Z" fill="#797A84"/>
</svg>
