<svg width="22" height="17" viewBox="0 0 22 17" fill="none" xmlns="http://www.w3.org/2000/svg">
    <path d="M0.6875 3.5465H6.81116C7.11877 4.76858 8.18974 5.67772 9.47192 5.67772C10.7541 5.67772 11.8251 4.76858 12.1327 3.5465H21.3125C21.6921 3.5465 22 3.22954 22 2.83886C22 2.44818 21.6921 2.13122 21.3125 2.13122H12.1327C11.8251 0.909143 10.7541 0 9.47192 0C8.18974 0 7.11877 0.909143 6.81116 2.13122H0.6875C0.307943 2.13122 0 2.44818 0 2.83886C0 3.22954 0.307943 3.5465 0.6875 3.5465ZM9.47192 1.41528C10.2346 1.41528 10.855 2.05382 10.855 2.83886C10.855 3.6239 10.2346 4.26244 9.47192 4.26244C8.70923 4.26244 8.08887 3.6239 8.08887 2.83886C8.08887 2.05382 8.70923 1.41528 9.47192 1.41528Z" fill="#797A84"/>
    <path d="M21.3125 7.79235H19.8402C19.5326 6.57028 18.4616 5.66113 17.1794 5.66113C15.8973 5.66113 14.8263 6.57028 14.5187 7.79235H0.6875C0.307943 7.79235 0 8.10932 0 8.49999C0 8.89067 0.307943 9.20764 0.6875 9.20764H14.5187C14.8263 10.4297 15.8973 11.3389 17.1794 11.3389C18.4616 11.3389 19.5326 10.4297 19.8402 9.20764H21.3125C21.6921 9.20764 22 8.89067 22 8.49999C22 8.10932 21.6921 7.79235 21.3125 7.79235ZM17.1794 9.92357C16.4167 9.92357 15.7964 9.28504 15.7964 8.49999C15.7964 7.71495 16.4167 7.07642 17.1794 7.07642C17.9421 7.07642 18.5625 7.71495 18.5625 8.49999C18.5625 9.28504 17.9421 9.92357 17.1794 9.92357Z" fill="#797A84"/>
    <path d="M21.3125 13.4535H7.99163C7.68408 12.2314 6.61316 11.3223 5.33171 11.3223C4.04953 11.3223 2.97855 12.2314 2.67094 13.4535H0.6875C0.307943 13.4535 0 13.7705 0 14.1611C0 14.5518 0.307943 14.8688 0.6875 14.8688H2.67094C2.97855 16.0908 4.04953 17 5.33171 17C6.61316 17 7.68408 16.0908 7.99163 14.8688H21.3125C21.6921 14.8688 22 14.5518 22 14.1611C22 13.7705 21.6921 13.4535 21.3125 13.4535ZM5.33171 15.5847C4.56901 15.5847 3.94865 14.9462 3.94865 14.1611C3.94865 13.3761 4.56901 12.7376 5.33171 12.7376C6.09351 12.7376 6.71387 13.3761 6.71387 14.1611C6.71387 14.9462 6.09351 15.5847 5.33171 15.5847Z" fill="#797A84"/>
</svg>
