<svg width="22" height="22" viewBox="0 0 22 22" fill="none" xmlns="http://www.w3.org/2000/svg">
    <path fill-rule="evenodd" clip-rule="evenodd" d="M2.31203 0.76273C1.90113 0.76273 1.50706 0.925959 1.21651 1.21651C0.925959 1.50706 0.76273 1.90113 0.76273 2.31203V19.688C0.76273 20.0989 0.925959 20.4929 1.21651 20.7835C1.50706 21.074 1.90113 21.2373 2.31203 21.2373H16.634L21.2373 16.634V2.31203C21.2373 1.90113 21.074 1.50706 20.7835 1.21651C20.4929 0.925959 20.0989 0.76273 19.688 0.76273H2.31203ZM0.677177 0.677177C1.11077 0.243588 1.69884 0 2.31203 0H19.688C20.3012 0 20.8892 0.243588 21.3228 0.677177C21.7564 1.11077 22 1.69884 22 2.31203V16.792C22 16.8931 21.9598 16.9901 21.8883 17.0616L17.0616 21.8883C16.9901 21.9598 16.8931 22 16.792 22H2.31203C1.69884 22 1.11077 21.7564 0.677177 21.3228C0.243588 20.8892 0 20.3012 0 19.688V2.31203C0 1.69884 0.243588 1.11077 0.677177 0.677177Z" fill="#797A84"/>
    <path fill-rule="evenodd" clip-rule="evenodd" d="M4 0.267534C4 0.119779 4.17957 0 4.40107 0H17.5989C17.8204 0 18 0.119779 18 0.267534V8.73247C18 8.88022 17.8204 9 17.5989 9H4.40107C4.17957 9 4 8.88022 4 8.73247V0.267534ZM4.80215 0.535067V8.46493H17.1979V0.535067H4.80215Z" fill="#797A84"/>
    <path fill-rule="evenodd" clip-rule="evenodd" d="M7 18.3683C7 18.1649 7.16098 18 7.35955 18H14.6404C14.839 18 15 18.1649 15 18.3683V21.6317C15 21.8351 14.839 22 14.6404 22H7.35955C7.16098 22 7 21.8351 7 21.6317V18.3683ZM7.7191 18.7367V21.2633H14.2809V18.7367H7.7191Z" fill="#797A84"/>
    <path fill-rule="evenodd" clip-rule="evenodd" d="M12.5 18C12.7761 18 13 18.1649 13 18.3683V21.6317C13 21.8351 12.7761 22 12.5 22C12.2239 22 12 21.8351 12 21.6317V18.3683C12 18.1649 12.2239 18 12.5 18Z" fill="#797A84"/>
</svg>
