<svg width="23" height="22" viewBox="0 0 23 22" fill="none" xmlns="http://www.w3.org/2000/svg">
    <path d="M12.001 0.000244141C11.724 0.000244141 11.501 0.223244 11.501 0.500244V1.00024C11.501 1.27724 11.724 1.50024 12.001 1.50024H17.0029L17.0107 4.74243C17.0117 5.15508 17.3461 5.48933 17.7588 5.49048L21.001 5.49902V19.75C21.001 20.1784 20.6795 20.5 20.251 20.5H8.75098C8.3225 20.5 8.00098 20.1784 8.00098 19.75V19C8.00098 18.723 7.77798 18.5 7.50098 18.5H7.00098C6.72397 18.5 6.50098 18.723 6.50098 19V19.75C6.50098 20.9835 7.51745 22 8.75098 22H20.251C21.4845 22 22.501 20.9835 22.501 19.75V4.50684C22.5009 4.30794 22.4219 4.11721 22.2812 3.97656L18.5244 0.219727C18.3838 0.0790266 18.193 5e-05 17.9941 0L12.001 0.000244141ZM6.50098 10.5002C6.50098 10.7772 6.72397 11.0002 7.00098 11.0002H7.50098C7.77798 11.0002 8.00098 10.7772 8.00098 10.5002V5.50024C8.00098 5.22324 7.77798 5.00024 7.50098 5.00024H7.00098C6.72397 5.00024 6.50098 5.22324 6.50098 5.50024V10.5002Z" fill="#797A84"/>
    <path d="M8.75 0.000488281C7.51647 0.000488281 6.5 1.01694 6.5 2.25049V3.50049C6.5 3.77749 6.72299 4.00049 7 4.00049H7.5C7.77701 4.00049 8 3.77749 8 3.50049V2.25049C8 1.82204 8.32152 1.50049 8.75 1.50049H10C10.277 1.50049 10.5 1.27749 10.5 1.00049V0.500488C10.5 0.223488 10.277 0.000488281 10 0.000488281H8.75ZM1 12.0005C0.445995 12.0005 0 12.4465 0 13.0005V16.5005C0 17.0545 0.445995 17.5005 1 17.5005H13.5C14.054 17.5005 14.5 17.0545 14.5 16.5005V13.0005C14.5 12.4465 14.054 12.0005 13.5 12.0005H1ZM7.19727 13.2944C7.96116 13.2944 8.51074 13.9006 8.51074 14.7505C8.51074 15.6051 7.96116 16.2065 7.19727 16.2065C6.44292 16.2065 5.87988 15.6051 5.87988 14.7505C5.87988 13.8959 6.42382 13.2944 7.19727 13.2944ZM10.1074 13.2944C10.3318 13.2944 10.5472 13.3465 10.7764 13.4468C10.8337 13.3418 10.8862 13.2993 10.9912 13.2993C11.1392 13.2993 11.2061 13.3615 11.2061 13.562L11.2111 14.1675C11.2111 14.368 11.1627 14.4399 10.9669 14.4399C10.8237 14.4399 10.7667 14.3682 10.7238 14.2202C10.6474 13.9481 10.5089 13.8052 10.1652 13.8052C9.6925 13.8052 9.42493 14.1298 9.42493 14.7505C9.42493 15.3711 9.71116 15.7104 10.1886 15.7104C10.308 15.7104 10.4563 15.6809 10.6329 15.6284V15.2661H10.3702C10.1745 15.2661 10.0792 15.2041 10.0792 15.0083C10.0792 14.8126 10.1745 14.7505 10.3702 14.7505H11.2111C11.4068 14.7505 11.507 14.8029 11.507 15.0034C11.507 15.1705 11.4163 15.2612 11.2491 15.2612H11.211V15.8149V15.8432C11.211 15.9291 11.2065 15.9574 11.13 16.0054C11.0011 16.0818 10.6044 16.2065 10.1222 16.2065C9.30098 16.2065 8.75204 15.6099 8.75204 14.7505C8.75204 13.9341 9.3101 13.2944 10.1074 13.2944ZM3.27539 13.3706H4.27246C4.46344 13.3706 4.55957 13.4422 4.55957 13.6284C4.55957 13.8194 4.46344 13.8862 4.27246 13.8862H4.06738V15.6235H5.12793V15.2085C5.12793 15.0079 5.19466 14.9126 5.38086 14.9126C5.57183 14.9126 5.63379 15.0127 5.63379 15.2085V15.9243C5.63379 16.0914 5.58539 16.1343 5.38965 16.1343H3.27539C3.08442 16.1343 2.99316 16.0675 2.99316 15.8765C2.99316 15.6855 3.08442 15.6235 3.27539 15.6235H3.48047V13.8862H3.27539C3.08442 13.8862 2.99316 13.8194 2.99316 13.6284C2.99316 13.4422 3.08442 13.3706 3.27539 13.3706ZM7.19727 13.8335C6.80577 13.8335 6.55273 14.1585 6.55273 14.7505C6.55273 15.3425 6.81532 15.6714 7.19727 15.6714C7.58399 15.6714 7.8418 15.3473 7.8418 14.7505C7.8418 14.1537 7.58399 13.8335 7.19727 13.8335Z" fill="#797A84"/>
</svg>
