<svg width="22" height="22" viewBox="0 0 22 22" fill="none" xmlns="http://www.w3.org/2000/svg">
    <path d="M1 2C1.55228 2 2 1.55228 2 1C2 0.447715 1.55228 0 1 0C0.447715 0 0 0.447715 0 1C0 1.55228 0.447715 2 1 2Z" fill="#797A84"/>
    <path d="M22 0H3V2H22V0Z" fill="#797A84"/>
    <path d="M1 6C1.55228 6 2 5.55228 2 5C2 4.44772 1.55228 4 1 4C0.447715 4 0 4.44772 0 5C0 5.55228 0.447715 6 1 6Z" fill="#797A84"/>
    <path d="M22 4H3V6H22V4Z" fill="#797A84"/>
    <path d="M1 10C1.55228 10 2 9.55228 2 9C2 8.44772 1.55228 8 1 8C0.447715 8 0 8.44772 0 9C0 9.55228 0.447715 10 1 10Z" fill="#797A84"/>
    <path d="M22 8H3V10H22V8Z" fill="#797A84"/>
    <path d="M1 14C1.55228 14 2 13.5523 2 13C2 12.4477 1.55228 12 1 12C0.447715 12 0 12.4477 0 13C0 13.5523 0.447715 14 1 14Z" fill="#797A84"/>
    <path d="M22 12H3V14H22V12Z" fill="#797A84"/>
    <path d="M1 18C1.55228 18 2 17.5523 2 17C2 16.4477 1.55228 16 1 16C0.447715 16 0 16.4477 0 17C0 17.5523 0.447715 18 1 18Z" fill="#797A84"/>
    <path d="M22 16H3V18H22V16Z" fill="#797A84"/>
    <path d="M1 22C1.55228 22 2 21.5523 2 21C2 20.4477 1.55228 20 1 20C0.447715 20 0 20.4477 0 21C0 21.5523 0.447715 22 1 22Z" fill="#797A84"/>
    <path d="M22 20H3V22H22V20Z" fill="#797A84"/>
</svg>
