<svg width="22" height="18" viewBox="0 0 22 18" fill="none" xmlns="http://www.w3.org/2000/svg">
    <path d="M22 0L15.7143 4.59184V3.4898C15.7143 2.7591 15.4659 2.05833 15.0239 1.54165C14.5818 1.02496 13.9823 0.734694 13.3571 0.734694H2.35714C1.73199 0.734694 1.13244 1.02496 0.690391 1.54165C0.248341 2.05833 0 2.7591 0 3.4898V14.5102C0 15.2409 0.248341 15.9417 0.690391 16.4584C1.13244 16.975 1.73199 17.2653 2.35714 17.2653H13.3571C13.9823 17.2653 14.5818 16.975 15.0239 16.4584C15.4659 15.9417 15.7143 15.2409 15.7143 14.5102V13.4082L22 18V0ZM14.1429 14.5102C14.1429 14.7538 14.0601 14.9874 13.9127 15.1596C13.7654 15.3318 13.5655 15.4286 13.3571 15.4286H2.35714C2.14876 15.4286 1.94891 15.3318 1.80156 15.1596C1.65421 14.9874 1.57143 14.7538 1.57143 14.5102V3.4898C1.57143 3.24623 1.65421 3.01264 1.80156 2.84041C1.94891 2.66819 2.14876 2.57143 2.35714 2.57143H13.3571C13.5655 2.57143 13.7654 2.66819 13.9127 2.84041C14.0601 3.01264 14.1429 3.24623 14.1429 3.4898V14.5102ZM20.4286 14.6939L15.7143 11.25V6.75L20.4286 3.30612V14.6939Z" fill="#797A84"/>
    <path d="M7.07254 5.32617H3.92969V7.16291H7.07254V5.32617Z" fill="#797A84"/>
</svg>
