<svg width="14" height="14" viewBox="0 0 14 14" fill="none" xmlns="http://www.w3.org/2000/svg">
    <path d="M9.62646 7.0003L13.5671 3.06039C14.1443 2.48255 14.1443 1.53687 13.5671 0.959026L13.0414 0.433984C12.4635 -0.144461 11.5179 -0.144461 10.9406 0.433984L7 4.37389L3.05941 0.433384C2.48215 -0.144461 1.53645 -0.144461 0.958596 0.433384L0.432943 0.958425C-0.144314 1.53627 -0.144314 2.48194 0.432943 3.05979L4.37294 6.9997L0.432943 10.9402C-0.144314 11.5181 -0.144314 12.4631 0.432943 13.041L0.958596 13.5666C1.53645 14.1445 2.48215 14.1445 3.05941 13.5666L7 9.62671L10.9406 13.5666C11.5179 14.1445 12.4635 14.1445 13.0414 13.5666L13.5671 13.041C14.1443 12.4631 14.1443 11.5181 13.5671 10.9402L9.62646 7.0003Z" fill="#FF5E0C"/>
</svg>
