<svg width="154" height="60" viewBox="0 0 154 60" fill="none" xmlns="http://www.w3.org/2000/svg">
<path d="M37.2248 32.958H26.2035L24.101 37.6601H18.4717L29.0521 15.7172H34.4779L45.0923 37.6601H39.3273L37.2248 32.958ZM35.4953 29.1024L31.7311 20.7014L27.9669 29.1024H35.4953Z" fill="white"/>
<path d="M60.8294 38.0362C58.4103 38.0362 56.2174 37.5556 54.2505 36.5943C52.3062 35.6121 50.7689 34.2642 49.6385 32.5505C48.5308 30.816 47.9769 28.862 47.9769 26.6887C47.9769 24.5153 48.5308 22.5718 49.6385 20.8581C50.7689 19.1236 52.3062 17.7757 54.2505 16.8144C56.2174 15.8322 58.4216 15.3411 60.8633 15.3411C62.9206 15.3411 64.7744 15.6754 66.4248 16.3442C68.0977 17.0129 69.4994 17.9742 70.6298 19.2281L67.103 22.2374C65.4979 20.5238 63.5084 19.6669 61.1346 19.6669C59.6651 19.6669 58.3538 19.97 57.2008 20.576C56.0478 21.1611 55.1435 21.9866 54.4879 23.0524C53.8549 24.1182 53.5384 25.3303 53.5384 26.6887C53.5384 28.047 53.8549 29.2591 54.4879 30.3249C55.1435 31.3907 56.0478 32.2266 57.2008 32.8327C58.3538 33.4178 59.6651 33.7104 61.1346 33.7104C63.5084 33.7104 65.4979 32.8431 67.103 31.1086L70.6298 34.1179C69.4994 35.3927 68.0977 36.3644 66.4248 37.0331C64.7518 37.7019 62.8867 38.0362 60.8294 38.0362Z" fill="white"/>
<path d="M93.8168 19.855H86.2206V37.6601H80.7948V19.855H73.2325V15.7172H93.8168V19.855Z" fill="white"/>
<path d="M74.7315 50.4285C74.7315 50.6096 74.7164 50.8673 74.6863 51.2017H65.2137C65.3795 52.0237 65.809 52.6785 66.5023 53.1661C67.2107 53.6398 68.0848 53.8766 69.1248 53.8766C70.4511 53.8766 71.5438 53.4726 72.4029 52.6646L73.9176 54.2737C73.375 54.8728 72.6893 55.3256 71.8603 55.6321C71.0314 55.9386 70.0969 56.0918 69.057 56.0918C67.7307 56.0918 66.5626 55.848 65.5528 55.3604C64.543 54.8728 63.7592 54.1971 63.2016 53.3333C62.659 52.4556 62.3877 51.4664 62.3877 50.3658C62.3877 49.2791 62.6515 48.3039 63.179 47.4401C63.7216 46.5624 64.4676 45.8797 65.4171 45.3921C66.3667 44.9044 67.4368 44.6606 68.6274 44.6606C69.803 44.6606 70.8505 44.9044 71.7699 45.3921C72.7044 45.8658 73.4278 46.5415 73.9402 47.4192C74.4678 48.283 74.7315 49.2861 74.7315 50.4285ZM68.6274 46.7504C67.7231 46.7504 66.9545 47.0012 66.3214 47.5028C65.7035 47.9904 65.3267 48.6452 65.1911 49.4672H72.0412C71.9206 48.6591 71.5514 48.0043 70.9334 47.5028C70.3155 47.0012 69.5468 46.7504 68.6274 46.7504Z" fill="white"/>
<path d="M88.1926 55.9455L85.0954 52.0794L81.9755 55.9455H78.8557L83.5581 50.2822L79.0591 44.786H82.2016L85.1632 48.4432L88.1248 44.786H91.1769L86.6553 50.2404L91.3803 55.9455H88.1926Z" fill="white"/>
<path d="M103.549 44.6606C104.724 44.6606 105.772 44.8975 106.691 45.3712C107.626 45.8449 108.357 46.5136 108.884 47.3774C109.412 48.2412 109.675 49.2373 109.675 50.3658C109.675 51.4943 109.412 52.4974 108.884 53.3751C108.357 54.2389 107.626 54.9076 106.691 55.3813C105.772 55.855 104.724 56.0918 103.549 56.0918C101.921 56.0918 100.632 55.5903 99.6828 54.5872V59.9997H96.8569V44.786H99.5472V46.2489C100.014 45.7195 100.587 45.3224 101.265 45.0577C101.959 44.793 102.72 44.6606 103.549 44.6606ZM103.232 53.8557C104.272 53.8557 105.124 53.5353 105.787 52.8944C106.465 52.2536 106.804 51.4107 106.804 50.3658C106.804 49.3209 106.465 48.478 105.787 47.8371C105.124 47.1963 104.272 46.8758 103.232 46.8758C102.554 46.8758 101.944 47.0221 101.401 47.3147C100.858 47.5933 100.429 47.9973 100.112 48.5268C99.7959 49.0562 99.6376 49.6692 99.6376 50.3658C99.6376 51.0624 99.7959 51.6754 100.112 52.2048C100.429 52.7342 100.858 53.1452 101.401 53.4378C101.944 53.7164 102.554 53.8557 103.232 53.8557Z" fill="white"/>
<path d="M127.096 50.4285C127.096 50.6096 127.081 50.8673 127.051 51.2017H117.578C117.744 52.0237 118.173 52.6785 118.867 53.1661C119.575 53.6398 120.449 53.8766 121.489 53.8766C122.815 53.8766 123.908 53.4726 124.767 52.6646L126.282 54.2737C125.739 54.8728 125.054 55.3256 124.225 55.6321C123.396 55.9386 122.461 56.0918 121.421 56.0918C120.095 56.0918 118.927 55.848 117.917 55.3604C116.907 54.8728 116.123 54.1971 115.566 53.3333C115.023 52.4556 114.752 51.4664 114.752 50.3658C114.752 49.2791 115.016 48.3039 115.543 47.4401C116.086 46.5624 116.832 45.8797 117.781 45.3921C118.731 44.9044 119.801 44.6606 120.992 44.6606C122.167 44.6606 123.215 44.9044 124.134 45.3921C125.069 45.8658 125.792 46.5415 126.304 47.4192C126.832 48.283 127.096 49.2861 127.096 50.4285ZM120.992 46.7504C120.087 46.7504 119.319 47.0012 118.686 47.5028C118.068 47.9904 117.691 48.6452 117.555 49.4672H124.405C124.285 48.6591 123.916 48.0043 123.298 47.5028C122.68 47.0012 121.911 46.7504 120.992 46.7504Z" fill="white"/>
<path d="M135.892 46.4161C136.706 45.2458 138.137 44.6606 140.187 44.6606V47.1475C139.946 47.1057 139.728 47.0848 139.532 47.0848C138.431 47.0848 137.572 47.3843 136.954 47.9834C136.336 48.5686 136.027 49.4184 136.027 50.533V55.9455H133.201V44.786H135.892V46.4161Z" fill="white"/>
<path d="M153.674 55.3395C153.343 55.5903 152.936 55.7784 152.453 55.9037C151.986 56.0291 151.489 56.0918 150.961 56.0918C149.635 56.0918 148.61 55.7714 147.887 55.1305C147.163 54.4896 146.802 53.5562 146.802 52.3302V46.9594H144.812V44.8696H146.802V42.3201H149.628V44.8696H152.86V46.9594H149.628V52.2675C149.628 52.8108 149.771 53.2288 150.057 53.5214C150.343 53.8 150.758 53.9393 151.301 53.9393C151.934 53.9393 152.461 53.7861 152.883 53.4796L153.674 55.3395Z" fill="white"/>
<path d="M126.528 4.20862C138.564 4.20862 146.163 14.7291 148.722 18.9388C146.159 23.1558 138.562 33.6689 126.528 33.6689C114.492 33.6689 106.895 23.2095 104.334 19.0172C106.893 14.7833 114.492 4.20862 126.528 4.20862ZM126.528 0C108.316 0 99.21 19.0261 99.21 19.0261C99.21 19.0261 108.316 37.8775 126.528 37.8775C144.739 37.8775 153.845 18.9388 153.845 18.9388C153.845 18.9388 144.739 0 126.528 0Z" fill="white"/>
<path fill-rule="evenodd" clip-rule="evenodd" d="M126.528 17.707C125.793 17.707 125.197 18.2587 125.197 18.9382C125.197 19.6178 125.793 20.1696 126.528 20.1696C127.264 20.1696 127.861 19.6178 127.861 18.9382C127.861 18.2587 127.264 17.707 126.528 17.707ZM123.065 18.9382C123.065 17.1703 124.616 15.7371 126.528 15.7371C128.441 15.7371 129.992 17.1703 129.992 18.9382C129.992 20.7062 128.441 22.1395 126.528 22.1395C124.616 22.1395 123.065 20.7062 123.065 18.9382ZM118.409 23.1734C118.046 22.5878 117.759 21.9573 117.556 21.2926L115.18 21.1545C114.53 21.1545 114.008 20.6717 114.008 20.0711V18.5686C115.73 19.52 118.488 19.3215 121.031 17.9727C120.968 18.2855 120.934 18.6083 120.934 18.9383C120.934 21.7947 123.438 24.1094 126.528 24.1094C129.619 24.1094 132.123 21.7947 132.123 18.9383C132.123 16.082 129.619 13.7671 126.528 13.7671C126.046 13.7671 125.577 13.8235 125.131 13.9298C125.76 12.5645 125.774 11.1954 125.023 10.1533C124.772 9.8043 124.45 9.51433 124.074 9.28342L124.131 8.44816C124.131 7.84722 124.653 7.3645 125.303 7.3645H127.754C128.404 7.3645 128.926 7.84722 128.926 8.44816L129.075 10.6447C129.794 10.8318 130.476 11.0978 131.11 11.4325L132.858 9.955C133.316 9.53154 134.057 9.53154 134.515 9.955L136.247 11.5556C136.705 11.9794 136.705 12.6638 136.247 13.0875L134.648 14.7028C135.01 15.2889 135.298 15.9193 135.5 16.5843L137.877 16.722C138.527 16.722 139.049 17.2048 139.049 17.8057V20.0711C139.049 20.6717 138.527 21.1545 137.877 21.1545L135.5 21.2926C135.298 21.9572 135.01 22.5877 134.648 23.1734L136.247 24.789C136.705 25.2129 136.705 25.8974 136.247 26.3209L134.515 27.9215C134.057 28.3449 133.316 28.3449 132.858 27.9215L131.11 26.4441C130.476 26.7788 129.794 27.0448 129.075 27.2317L128.926 29.4285C128.926 30.0291 128.404 30.5119 127.754 30.5119H125.303C124.653 30.5119 124.131 30.0291 124.131 29.4285L123.982 27.2317C123.262 27.0448 122.58 26.7788 121.947 26.4441L120.199 27.9215C119.741 28.3449 119 28.3449 118.542 27.9215L116.81 26.3209C116.352 25.8973 116.352 25.2128 116.81 24.789L118.409 23.1734Z" fill="#FF5E0C"/>
<g opacity="0.8">
<path d="M14.2881 55.9457L14.2429 48.1926L10.1735 54.5037H8.184L4.13721 48.4015V55.9457H0V41.3171H3.68506L9.24656 49.7599L14.6724 41.3171H18.3575L18.4027 55.9457H14.2881Z" fill="#FF5E0C"/>
<path d="M38.7078 41.3171L31.9255 55.9457H27.517L20.7572 41.3171H25.5953L29.8908 50.8466L34.2767 41.3171H38.7078Z" fill="#FF5E0C"/>
<path d="M48.3079 48.4642H54.9094V51.5153H48.3079V48.4642Z" fill="#FF5E0C"/>
</g>
</svg>
